<mxfile host="Electron" agent="Mozilla/5.0 (Macintosh; Intel Mac OS X 10_15_7) AppleWebKit/537.36 (KHTML, like Gecko) draw.io/27.0.9 Chrome/134.0.6998.205 Electron/35.4.0 Safari/537.36" version="27.0.9">
  <diagram name="Page-1" id="pqyWuIqvjz6fI7Egj4vn">
    <mxGraphModel dx="2460" dy="2213" grid="1" gridSize="10" guides="1" tooltips="1" connect="1" arrows="1" fold="1" page="1" pageScale="1" pageWidth="827" pageHeight="1169" math="0" shadow="0">
      <root>
        <mxCell id="0" />
        <mxCell id="1" parent="0" />
        <mxCell id="ePspYOkrB6pduKRnT7MS-2" style="edgeStyle=orthogonalEdgeStyle;rounded=0;orthogonalLoop=1;jettySize=auto;html=1;" edge="1" parent="1" source="RXg5lKBmtj93YGWo_rn5-1" target="RXg5lKBmtj93YGWo_rn5-12">
          <mxGeometry relative="1" as="geometry" />
        </mxCell>
        <mxCell id="RXg5lKBmtj93YGWo_rn5-1" value="Media" style="swimlane;fontStyle=1;align=center;verticalAlign=top;childLayout=stackLayout;horizontal=1;startSize=26;horizontalStack=0;resizeParent=1;resizeParentMax=0;resizeLast=0;collapsible=1;marginBottom=0;whiteSpace=wrap;html=1;" parent="1" vertex="1">
          <mxGeometry x="330" y="300" width="270" height="380" as="geometry" />
        </mxCell>
        <mxCell id="RXg5lKBmtj93YGWo_rn5-2" value="- title: string const&lt;div&gt;- year: int&amp;nbsp;&lt;/div&gt;&lt;div&gt;- copiesAvailable: int&lt;/div&gt;&lt;div&gt;-&amp;nbsp;&lt;span style=&quot;background-color: transparent; color: light-dark(rgb(0, 0, 0), rgb(255, 255, 255));&quot;&gt;coverImagePath: string const&lt;/span&gt;&lt;/div&gt;" style="text;strokeColor=none;fillColor=none;align=left;verticalAlign=top;spacingLeft=4;spacingRight=4;overflow=hidden;rotatable=0;points=[[0,0.5],[1,0.5]];portConstraint=eastwest;whiteSpace=wrap;html=1;" parent="RXg5lKBmtj93YGWo_rn5-1" vertex="1">
          <mxGeometry y="26" width="270" height="64" as="geometry" />
        </mxCell>
        <mxCell id="RXg5lKBmtj93YGWo_rn5-3" value="" style="line;strokeWidth=1;fillColor=none;align=left;verticalAlign=middle;spacingTop=-1;spacingLeft=3;spacingRight=3;rotatable=0;labelPosition=right;points=[];portConstraint=eastwest;strokeColor=inherit;" parent="RXg5lKBmtj93YGWo_rn5-1" vertex="1">
          <mxGeometry y="90" width="270" height="8" as="geometry" />
        </mxCell>
        <mxCell id="RXg5lKBmtj93YGWo_rn5-4" value="+ Media(title:string const, year:int, coverImagePath: string const)&lt;div&gt;+&amp;nbsp; ~Media()&lt;/div&gt;&lt;div&gt;+&amp;nbsp; getTitle(): string const&lt;/div&gt;&lt;div&gt;+&amp;nbsp;&amp;nbsp;&lt;span style=&quot;color: light-dark(rgb(0, 0, 0), rgb(255, 255, 255)); background-color: transparent;&quot;&gt;getYear(): int const&lt;/span&gt;&lt;/div&gt;&lt;div&gt;+&amp;nbsp;&amp;nbsp;&lt;span style=&quot;color: light-dark(rgb(0, 0, 0), rgb(255, 255, 255)); background-color: transparent;&quot;&gt;getC&lt;/span&gt;&lt;span style=&quot;background-color: transparent; color: light-dark(rgb(0, 0, 0), rgb(255, 255, 255));&quot;&gt;overImagePath&lt;/span&gt;&lt;span style=&quot;background-color: transparent; color: light-dark(rgb(0, 0, 0), rgb(255, 255, 255));&quot;&gt;(): string const&lt;/span&gt;&lt;/div&gt;&lt;div&gt;+&amp;nbsp; setTitle(title: const string&amp;amp;): void&lt;/div&gt;&lt;div&gt;+&amp;nbsp; setYear(year: int): void&lt;/div&gt;&lt;div&gt;+&amp;nbsp; setC&lt;span style=&quot;background-color: transparent; color: light-dark(rgb(0, 0, 0), rgb(255, 255, 255));&quot;&gt;overImagePath&amp;nbsp;&lt;/span&gt;&lt;span style=&quot;background-color: transparent; color: light-dark(rgb(0, 0, 0), rgb(255, 255, 255));&quot;&gt;(path: const string&amp;amp;): void&lt;/span&gt;&lt;/div&gt;&lt;div&gt;&lt;span style=&quot;background-color: transparent; color: light-dark(rgb(0, 0, 0), rgb(255, 255, 255));&quot;&gt;+&amp;nbsp; getCopiesAvailable(): int const&lt;/span&gt;&lt;/div&gt;&lt;div&gt;&lt;span style=&quot;background-color: transparent; color: light-dark(rgb(0, 0, 0), rgb(255, 255, 255));&quot;&gt;+&amp;nbsp;&amp;nbsp;&lt;/span&gt;&lt;span style=&quot;background-color: transparent;&quot;&gt;setCopiesAvailable(copies: int): void&lt;/span&gt;&lt;/div&gt;&lt;div&gt;&lt;span style=&quot;background-color: transparent;&quot;&gt;+&amp;nbsp;&amp;nbsp;&lt;/span&gt;&lt;span style=&quot;background-color: transparent;&quot;&gt;addCopies(delta: int): void&lt;/span&gt;&lt;/div&gt;&lt;div&gt;&lt;span style=&quot;background-color: transparent;&quot;&gt;+&amp;nbsp;&amp;nbsp;&lt;/span&gt;&lt;span style=&quot;background-color: transparent;&quot;&gt;visualizzaDettagli(): string const&lt;/span&gt;&lt;/div&gt;&lt;div&gt;&lt;span style=&quot;background-color: transparent;&quot;&gt;+&amp;nbsp; serializza(): JsonObject const&lt;/span&gt;&lt;/div&gt;&lt;div&gt;&lt;span style=&quot;background-color: transparent;&quot;&gt;+&amp;nbsp; clone(): const Media*&lt;/span&gt;&lt;/div&gt;&lt;div&gt;&lt;span style=&quot;background-color: transparent;&quot;&gt;+&amp;nbsp; deserializza(jsonObject: const JsonObject&amp;amp;): Media*&lt;/span&gt;&lt;/div&gt;&lt;div&gt;&lt;span style=&quot;background-color: transparent;&quot;&gt;+&amp;nbsp; accept(visitor: MediaVisitor&amp;amp;): Widget*&lt;/span&gt;&lt;/div&gt;&lt;div&gt;&lt;span style=&quot;background-color: transparent;&quot;&gt;&lt;br&gt;&lt;/span&gt;&lt;/div&gt;" style="text;strokeColor=none;fillColor=none;align=left;verticalAlign=top;spacingLeft=4;spacingRight=4;overflow=hidden;rotatable=0;points=[[0,0.5],[1,0.5]];portConstraint=eastwest;whiteSpace=wrap;html=1;" parent="RXg5lKBmtj93YGWo_rn5-1" vertex="1">
          <mxGeometry y="98" width="270" height="282" as="geometry" />
        </mxCell>
        <mxCell id="RXg5lKBmtj93YGWo_rn5-12" value="Book" style="swimlane;fontStyle=1;align=center;verticalAlign=top;childLayout=stackLayout;horizontal=1;startSize=26;horizontalStack=0;resizeParent=1;resizeParentMax=0;resizeLast=0;collapsible=1;marginBottom=0;whiteSpace=wrap;html=1;" parent="1" vertex="1">
          <mxGeometry x="285" y="809" width="360" height="360" as="geometry" />
        </mxCell>
        <mxCell id="RXg5lKBmtj93YGWo_rn5-13" value="&lt;div&gt;&lt;span style=&quot;background-color: transparent; color: light-dark(rgb(0, 0, 0), rgb(255, 255, 255));&quot;&gt;- author: string&lt;/span&gt;&lt;/div&gt;&lt;div&gt;- isbn: string&lt;/div&gt;&lt;div&gt;- publisher: string&lt;/div&gt;" style="text;strokeColor=none;fillColor=none;align=left;verticalAlign=top;spacingLeft=4;spacingRight=4;overflow=hidden;rotatable=0;points=[[0,0.5],[1,0.5]];portConstraint=eastwest;whiteSpace=wrap;html=1;" parent="RXg5lKBmtj93YGWo_rn5-12" vertex="1">
          <mxGeometry y="26" width="360" height="74" as="geometry" />
        </mxCell>
        <mxCell id="RXg5lKBmtj93YGWo_rn5-14" value="" style="line;strokeWidth=1;fillColor=none;align=left;verticalAlign=middle;spacingTop=-1;spacingLeft=3;spacingRight=3;rotatable=0;labelPosition=right;points=[];portConstraint=eastwest;strokeColor=inherit;" parent="RXg5lKBmtj93YGWo_rn5-12" vertex="1">
          <mxGeometry y="100" width="360" height="8" as="geometry" />
        </mxCell>
        <mxCell id="RXg5lKBmtj93YGWo_rn5-15" value="&lt;div&gt;+&amp;nbsp; Book(title: string const, year: int, author: const string&amp;amp;, isbn: const string&amp;amp;, publisher: const string&amp;amp;, coverImagePath: const string&amp;amp;)&lt;/div&gt;&lt;div&gt;+&amp;nbsp; Book(other: const Book&amp;amp;)&lt;/div&gt;&lt;div&gt;+&amp;nbsp; getAuthor(): string const&lt;/div&gt;&lt;div&gt;+&amp;nbsp; getIsbn(): string const&lt;/div&gt;&lt;div&gt;+&amp;nbsp; getPublisher(): string const&lt;/div&gt;&lt;div&gt;+&amp;nbsp; setAuthor(author:&amp;nbsp;&lt;span style=&quot;background-color: transparent; color: light-dark(rgb(0, 0, 0), rgb(255, 255, 255));&quot;&gt;const string&amp;amp;&lt;/span&gt;&lt;span style=&quot;background-color: transparent; color: light-dark(rgb(0, 0, 0), rgb(255, 255, 255));&quot;&gt;): void&lt;/span&gt;&lt;/div&gt;&lt;div&gt;+&amp;nbsp; setIsbn(isbn: const string&amp;amp;): void&lt;/div&gt;&lt;div&gt;+&amp;nbsp; setPublisher(publisher: const string&amp;amp;): void&lt;/div&gt;&lt;div&gt;+&amp;nbsp; visualizzaDettagli(): string const&lt;/div&gt;&lt;div&gt;+&amp;nbsp; serializza(): JsonObject const&lt;/div&gt;&lt;div&gt;+&amp;nbsp; clone(): const Media*&lt;/div&gt;&lt;div&gt;+&amp;nbsp; deserializza(jsonObject: const JsonObject&amp;amp;): Book*&lt;/div&gt;&lt;div&gt;+&amp;nbsp; accept(visitor: MediaVisitor&amp;amp;): Widget*&lt;/div&gt;" style="text;strokeColor=none;fillColor=none;align=left;verticalAlign=top;spacingLeft=4;spacingRight=4;overflow=hidden;rotatable=0;points=[[0,0.5],[1,0.5]];portConstraint=eastwest;whiteSpace=wrap;html=1;" parent="RXg5lKBmtj93YGWo_rn5-12" vertex="1">
          <mxGeometry y="108" width="360" height="252" as="geometry" />
        </mxCell>
        <mxCell id="aNGDOoTcrYdTsEb721r_-2" value="MagazineArticle" style="swimlane;fontStyle=1;align=center;verticalAlign=top;childLayout=stackLayout;horizontal=1;startSize=26;horizontalStack=0;resizeParent=1;resizeParentMax=0;resizeLast=0;collapsible=1;marginBottom=0;whiteSpace=wrap;html=1;" parent="1" vertex="1">
          <mxGeometry x="-210" y="860" width="440" height="310" as="geometry" />
        </mxCell>
        <mxCell id="aNGDOoTcrYdTsEb721r_-3" value="&lt;div&gt;&lt;div&gt;- author: string&lt;/div&gt;&lt;div&gt;- magazine: string&lt;/div&gt;&lt;div&gt;- doi: string&lt;/div&gt;&lt;/div&gt;" style="text;strokeColor=none;fillColor=none;align=left;verticalAlign=top;spacingLeft=4;spacingRight=4;overflow=hidden;rotatable=0;points=[[0,0.5],[1,0.5]];portConstraint=eastwest;whiteSpace=wrap;html=1;" parent="aNGDOoTcrYdTsEb721r_-2" vertex="1">
          <mxGeometry y="26" width="440" height="54" as="geometry" />
        </mxCell>
        <mxCell id="aNGDOoTcrYdTsEb721r_-4" value="" style="line;strokeWidth=1;fillColor=none;align=left;verticalAlign=middle;spacingTop=-1;spacingLeft=3;spacingRight=3;rotatable=0;labelPosition=right;points=[];portConstraint=eastwest;strokeColor=inherit;" parent="aNGDOoTcrYdTsEb721r_-2" vertex="1">
          <mxGeometry y="80" width="440" height="8" as="geometry" />
        </mxCell>
        <mxCell id="aNGDOoTcrYdTsEb721r_-5" value="&lt;div&gt;+ MagazineArticle(title: const string&amp;amp;, year: int, author: const string&amp;amp;, magazine: const string&amp;amp;, doi: const string&amp;amp;, coverImagePath: const string&amp;amp;)&lt;/div&gt;&lt;div&gt;+ MagazineArticle(other: const MagazineArticle&amp;amp;)&lt;/div&gt;&lt;div&gt;+ getAuthor(): string const&lt;/div&gt;&lt;div&gt;+ getMagazine(): string const&lt;/div&gt;&lt;div&gt;+ getDoi(): string const&lt;/div&gt;&lt;div&gt;+ setAuthor(author: const string&amp;amp;): void&lt;/div&gt;&lt;div&gt;+ setMagazine(magazine: const string&amp;amp;): void&lt;/div&gt;&lt;div&gt;+ setDoi(doi: const string&amp;amp;): void&lt;/div&gt;&lt;div&gt;+ visualizzaDettagli(): string const&lt;/div&gt;&lt;div&gt;+ serializza(): JsonObject const&lt;/div&gt;&lt;div&gt;+ clone(): const Media*&lt;/div&gt;&lt;div&gt;+ deserializza(jsonObject: const JsonObject&amp;amp;): MagazineArticle*&lt;/div&gt;&lt;div&gt;+ accept(visitor: MediaVisitor&amp;amp;): QWidget*&lt;/div&gt;" style="text;strokeColor=none;fillColor=none;align=left;verticalAlign=top;spacingLeft=4;spacingRight=4;overflow=hidden;rotatable=0;points=[[0,0.5],[1,0.5]];portConstraint=eastwest;whiteSpace=wrap;html=1;" parent="aNGDOoTcrYdTsEb721r_-2" vertex="1">
          <mxGeometry y="88" width="440" height="222" as="geometry" />
        </mxCell>
        <mxCell id="aNGDOoTcrYdTsEb721r_-6" value="Film" style="swimlane;fontStyle=1;align=center;verticalAlign=top;childLayout=stackLayout;horizontal=1;startSize=26;horizontalStack=0;resizeParent=1;resizeParentMax=0;resizeLast=0;collapsible=1;marginBottom=0;whiteSpace=wrap;html=1;" parent="1" vertex="1">
          <mxGeometry x="780" y="816" width="430" height="330" as="geometry" />
        </mxCell>
        <mxCell id="aNGDOoTcrYdTsEb721r_-7" value="&lt;div&gt;- director: string&lt;/div&gt;&lt;div&gt;- duration: int&lt;/div&gt;&lt;div&gt;- genere: string&lt;/div&gt;" style="text;strokeColor=none;fillColor=none;align=left;verticalAlign=top;spacingLeft=4;spacingRight=4;overflow=hidden;rotatable=0;points=[[0,0.5],[1,0.5]];portConstraint=eastwest;whiteSpace=wrap;html=1;" parent="aNGDOoTcrYdTsEb721r_-6" vertex="1">
          <mxGeometry y="26" width="430" height="64" as="geometry" />
        </mxCell>
        <mxCell id="aNGDOoTcrYdTsEb721r_-8" value="" style="line;strokeWidth=1;fillColor=none;align=left;verticalAlign=middle;spacingTop=-1;spacingLeft=3;spacingRight=3;rotatable=0;labelPosition=right;points=[];portConstraint=eastwest;strokeColor=inherit;" parent="aNGDOoTcrYdTsEb721r_-6" vertex="1">
          <mxGeometry y="90" width="430" height="8" as="geometry" />
        </mxCell>
        <mxCell id="aNGDOoTcrYdTsEb721r_-9" value="&lt;div&gt;+ Film(title: const string&amp;amp;, year: int, director: const string&amp;amp;, duration: int, genere: const string&amp;amp;, coverImagePath: const string&amp;amp;)&lt;/div&gt;&lt;div&gt;+ Film(other: const Film&amp;amp;)&lt;/div&gt;&lt;div&gt;+ getTitle(): string const&lt;/div&gt;&lt;div&gt;+ getDirector(): string const&lt;/div&gt;&lt;div&gt;+ getDuration(): int const&lt;/div&gt;&lt;div&gt;+ getGenere(): string const&lt;/div&gt;&lt;div&gt;+ setDirector(director: const string&amp;amp;): void&lt;/div&gt;&lt;div&gt;+ setDuration(duration: int): void&lt;/div&gt;&lt;div&gt;+ setGenere(genere: const string&amp;amp;): void&lt;/div&gt;&lt;div&gt;+ visualizzaDettagli(): string const&lt;/div&gt;&lt;div&gt;+ serializza(): JsonObject const&lt;/div&gt;&lt;div&gt;+ clone(): const Media*&lt;/div&gt;&lt;div&gt;+ deserializza(jsonObject: const JsonObject&amp;amp;): Film*&lt;/div&gt;&lt;div&gt;+ accept(visitor: MediaVisitor&amp;amp;): QWidget*&lt;/div&gt;" style="text;strokeColor=none;fillColor=none;align=left;verticalAlign=top;spacingLeft=4;spacingRight=4;overflow=hidden;rotatable=0;points=[[0,0.5],[1,0.5]];portConstraint=eastwest;whiteSpace=wrap;html=1;" parent="aNGDOoTcrYdTsEb721r_-6" vertex="1">
          <mxGeometry y="98" width="430" height="232" as="geometry" />
        </mxCell>
        <mxCell id="aNGDOoTcrYdTsEb721r_-10" style="edgeStyle=orthogonalEdgeStyle;rounded=0;orthogonalLoop=1;jettySize=auto;html=1;exitX=1;exitY=0.5;exitDx=0;exitDy=0;" parent="1" source="RXg5lKBmtj93YGWo_rn5-4" target="aNGDOoTcrYdTsEb721r_-6" edge="1">
          <mxGeometry relative="1" as="geometry" />
        </mxCell>
        <mxCell id="ePspYOkrB6pduKRnT7MS-1" style="edgeStyle=orthogonalEdgeStyle;rounded=0;orthogonalLoop=1;jettySize=auto;html=1;" edge="1" parent="1" source="RXg5lKBmtj93YGWo_rn5-4" target="aNGDOoTcrYdTsEb721r_-2">
          <mxGeometry relative="1" as="geometry" />
        </mxCell>
      </root>
    </mxGraphModel>
  </diagram>
</mxfile>
